<svg width="14" height="14" viewBox="0 0 14 14" fill="none" xmlns="http://www.w3.org/2000/svg">
<path fill-rule="evenodd" clip-rule="evenodd" d="M11.6883 8.08651C12.1195 8.54434 12.5747 8.97509 12.9614 9.47908C13.1323 9.70305 13.294 9.93417 13.4178 10.1941C13.5931 10.5636 13.4343 10.9702 13.1296 10.9922L11.2358 10.9913C10.7473 11.0354 10.3576 10.8215 10.03 10.4584C9.76777 10.1679 9.52495 9.85883 9.27282 9.5586C9.16945 9.43589 9.06126 9.32042 8.93201 9.22915C8.67347 9.04666 8.44906 9.10254 8.30132 9.39576C8.15084 9.69399 8.11672 10.0242 8.10194 10.3566C8.08165 10.8416 7.94685 10.969 7.49888 10.9913C6.54152 11.0403 5.63294 10.8828 4.78889 10.3577C4.04475 9.89469 3.46771 9.24109 2.96545 8.50114C1.98755 7.06032 1.23867 5.47708 0.565601 3.84949C0.414099 3.4828 0.524896 3.28595 0.896965 3.27899C1.5148 3.26594 2.13256 3.26686 2.75112 3.27806C3.00223 3.28205 3.16846 3.43867 3.26542 3.69664C3.59969 4.59041 4.00871 5.44076 4.52211 6.22896C4.65883 6.43881 4.79825 6.64866 4.99678 6.79636C5.2164 6.9599 5.38362 6.90569 5.48695 6.63965C5.55251 6.47095 5.58121 6.28925 5.59599 6.10857C5.64494 5.48698 5.65139 4.86645 5.56554 4.24703C5.51283 3.86045 5.31259 3.6102 4.95786 3.53705C4.77685 3.49975 4.8038 3.4265 4.89145 3.31415C5.04367 3.12037 5.18685 2.99975 5.47225 2.99975H7.61262C7.94958 3.07207 8.02441 3.23667 8.07054 3.60537L8.07238 6.19074C8.06871 6.33347 8.13794 6.75702 8.37436 6.85149C8.56357 6.91875 8.6883 6.75414 8.80183 6.62367C9.31429 6.03222 9.68004 5.33324 10.0068 4.60946C10.1518 4.2912 10.2765 3.96069 10.3973 3.63045C10.4868 3.3854 10.6273 3.26482 10.8812 3.27016L12.9411 3.27216C13.0022 3.27216 13.064 3.27313 13.1232 3.28414C13.4703 3.34847 13.5654 3.51085 13.4582 3.87945C13.2893 4.45776 12.9606 4.93969 12.6393 5.42386C12.2957 5.94076 11.9283 6.43997 11.5876 6.95994C11.2746 7.43477 11.2995 7.67411 11.6883 8.08651Z" fill="#353535"/>
</svg>
