<svg width="15" height="11" viewBox="0 0 15 11" fill="none" xmlns="http://www.w3.org/2000/svg">
<path fill-rule="evenodd" clip-rule="evenodd" d="M12.4879 1.20384C13.0881 1.36547 13.5613 1.83861 13.7228 2.43884C14.023 3.5352 14.0115 5.82048 14.0115 5.82048C14.0115 5.82048 14.0115 8.0941 13.7229 9.19056C13.5613 9.79069 13.0882 10.2639 12.4879 10.4255C11.3915 10.7141 7.00573 10.7141 7.00573 10.7141C7.00573 10.7141 2.63143 10.7141 1.52352 10.414C0.923286 10.2524 0.450152 9.77915 0.28852 9.17902C0 8.0941 0 5.80893 0 5.80893C0 5.80893 0 3.5352 0.28852 2.43884C0.450045 1.83871 0.934832 1.35393 1.52342 1.1924C2.61988 0.903778 7.00562 0.903778 7.00562 0.903778C7.00562 0.903778 11.3915 0.903778 12.4879 1.20384ZM9.25635 5.80925L5.60925 7.90987V3.70863L9.25635 5.80925Z" fill="#353535"/>
</svg>
